<svg width="380" height="86" viewBox="0 0 380 86" fill="none" xmlns="http://www.w3.org/2000/svg" role="img" aria-label="Asyraf Fauzi — Warisan">
  <g>
    <path d="M10 78 V34 C10 18 23 8 42 8 C61 8 74 18 74 34 V78 Z" fill="#5E162A"/>
    <path d="M17 74 V35 C17 22 28 14 42 14 C56 14 67 22 67 35 V74" fill="none" stroke="#D9B566" stroke-width="1.3"/>
    <path d="M42 22 C49 26 54 26 58 26 C58 39 55 48 42 55 C29 48 26 39 26 26 C30 26 35 26 42 22 Z" fill="none" stroke="#D9B566" stroke-width="1" opacity="0.7"/>
    <text x="42" y="50" text-anchor="middle" font-family="Georgia, serif" font-size="19" font-weight="700" fill="#EBD9BE">AF</text>
  </g>
  <g>
    <text x="96" y="40" font-family="'Playfair Display', Georgia, serif" font-size="27" font-weight="700" fill="#5E162A">Asyraf Fauzi</text>
    <line x1="97" y1="51" x2="300" y2="51" stroke="#B8893B" stroke-width="1"/>
    <text x="98" y="66" font-family="Arial, Helvetica, sans-serif" font-size="10" font-weight="600" letter-spacing="3.4" fill="#B8893B">TAKAFUL · PROTECTION · WARISAN</text>
  </g>
</svg>
